{
	"asset":{
		"generator":"Khronos glTF Blender I/O v5.1.19",
		"version":"2.0"
	},
	"scene":0,
	"scenes":[
		{
			"name":"Scene",
			"nodes":[
				0,
				1,
				2,
				3,
				4,
				5,
				6,
				7,
				8,
				9,
				10,
				12,
				15
			]
		}
	],
	"nodes":[
		{
			"mesh":0,
			"name":"Cube"
		},
		{
			"camera":0,
			"name":"Cam1",
			"translation":[
				0,
				0,
				11.841245651245117
			]
		},
		{
			"name":"B\u00e9zierCircle",
			"scale":[
				11.841245651245117,
				11.841245651245117,
				11.841245651245117
			]
		},
		{
			"mesh":1,
			"name":"Cube.001",
			"translation":[
				0,
				3.9339981079101562,
				11.221270561218262
			]
		},
		{
			"mesh":2,
			"name":"Cube.002",
			"translation":[
				0,
				-3.8969197273254395,
				11.221270561218262
			]
		},
		{
			"mesh":3,
			"name":"Cube.003",
			"translation":[
				0,
				2.2543251514434814,
				20.464975357055664
			]
		},
		{
			"camera":1,
			"name":"Cam2",
			"rotation":[
				-0.08301543444395065,
				0.896793007850647,
				0.19061999022960663,
				0.39055725932121277
			],
			"translation":[
				23.92573356628418,
				14.5496187210083,
				-22.25910186767578
			]
		},
		{
			"name":"camera_curve",
			"translation":[
				6.356954574584961,
				1.4924888610839844,
				-1.9790687561035156
			]
		},
		{
			"camera":2,
			"name":"camera_on_path",
			"rotation":[
				0,
				0.7071068286895752,
				0,
				0.7071068286895752
			],
			"translation":[
				5.356954574584961,
				-0.3194694519042969,
				-1.9790687561035156
			]
		},
		{
			"mesh":4,
			"name":"Suzanne",
			"rotation":[
				-0.19370758533477783,
				0.4512737989425659,
				0.13706795871257782,
				0.8602567911148071
			],
			"translation":[
				3.7828328609466553,
				5.527288436889648,
				6.213360786437988
			]
		},
		{
			"camera":3,
			"name":"suz_cam",
			"rotation":[
				-0.20902755856513977,
				0.650530219078064,
				0.19311025738716125,
				0.7041494250297546
			],
			"translation":[
				11.458905220031738,
				10.297807693481445,
				6.750087261199951
			]
		},
		{
			"mesh":5,
			"name":"Icosphere",
			"translation":[
				0,
				-4.234414100646973,
				-7.688310623168945
			]
		},
		{
			"children":[
				11
			],
			"name":"Empty",
			"translation":[
				0,
				9.036831855773926,
				10.484243392944336
			]
		},
		{
			"mesh":6,
			"name":"camera_look_at_target",
			"translation":[
				-11.642215728759766,
				-7.387698173522949,
				7.429666519165039
			]
		},
		{
			"name":"camera_lookat",
			"translation":[
				-10.642215728759766,
				-5.575739860534668,
				7.429666519165039
			]
		},
		{
			"children":[
				13,
				14
			],
			"name":"Empty.001",
			"translation":[
				0,
				7.068228721618652,
				-9.408735275268555
			]
		}
	],
	"cameras":[
		{
			"extras":{
				"seq_start":1.0,
				"seq_end":5.0
			},
			"name":"Camera",
			"perspective":{
				"aspectRatio":1.7777777777777777,
				"yfov":0.4782096395115288,
				"zfar":100.10000610351562,
				"znear":0.10000000149011612
			},
			"type":"perspective"
		},
		{
			"name":"Camera.001",
			"perspective":{
				"aspectRatio":1.7777777777777777,
				"yfov":0.39959652046304894,
				"zfar":1000,
				"znear":0.10000000149011612
			},
			"type":"perspective"
		},
		{
			"name":"Camera.002",
			"perspective":{
				"aspectRatio":1.7777777777777777,
				"yfov":0.39959652046304894,
				"zfar":1000,
				"znear":0.10000000149011612
			},
			"type":"perspective"
		},
		{
			"name":"Camera.003",
			"perspective":{
				"aspectRatio":1.7777777777777777,
				"yfov":0.39959652046304894,
				"zfar":1000,
				"znear":0.10000000149011612
			},
			"type":"perspective"
		}
	],
	"animations":[
		{
			"channels":[
				{
					"sampler":0,
					"target":{
						"node":1,
						"path":"translation"
					}
				},
				{
					"sampler":1,
					"target":{
						"node":1,
						"path":"rotation"
					}
				}
			],
			"name":"CameraAction",
			"samplers":[
				{
					"input":25,
					"interpolation":"LINEAR",
					"output":26
				},
				{
					"input":25,
					"interpolation":"LINEAR",
					"output":27
				}
			]
		},
		{
			"channels":[
				{
					"sampler":0,
					"target":{
						"node":8,
						"path":"translation"
					}
				},
				{
					"sampler":1,
					"target":{
						"node":8,
						"path":"rotation"
					}
				}
			],
			"name":"camera_on_pathAction",
			"samplers":[
				{
					"input":28,
					"interpolation":"LINEAR",
					"output":29
				},
				{
					"input":28,
					"interpolation":"LINEAR",
					"output":30
				}
			]
		},
		{
			"channels":[
				{
					"sampler":0,
					"target":{
						"node":13,
						"path":"translation"
					}
				}
			],
			"name":"camera_look_at_targetAction",
			"samplers":[
				{
					"input":31,
					"interpolation":"LINEAR",
					"output":32
				}
			]
		}
	],
	"materials":[
		{
			"doubleSided":true,
			"name":"Material",
			"pbrMetallicRoughness":{
				"baseColorFactor":[
					0.800000011920929,
					0.800000011920929,
					0.800000011920929,
					1
				],
				"metallicFactor":0,
				"roughnessFactor":0.5
			}
		}
	],
	"meshes":[
		{
			"name":"Cube",
			"primitives":[
				{
					"attributes":{
						"POSITION":0,
						"NORMAL":1,
						"TEXCOORD_0":2
					},
					"indices":3,
					"material":0
				}
			]
		},
		{
			"name":"Cube.001",
			"primitives":[
				{
					"attributes":{
						"POSITION":4,
						"NORMAL":5,
						"TEXCOORD_0":6
					},
					"indices":7
				}
			]
		},
		{
			"name":"Cube.002",
			"primitives":[
				{
					"attributes":{
						"POSITION":8,
						"NORMAL":9,
						"TEXCOORD_0":10
					},
					"indices":7
				}
			]
		},
		{
			"extras":{
				"test_string":"1.0"
			},
			"name":"Cube.003",
			"primitives":[
				{
					"attributes":{
						"POSITION":11,
						"NORMAL":12,
						"TEXCOORD_0":13
					},
					"indices":7
				}
			]
		},
		{
			"name":"Suzanne",
			"primitives":[
				{
					"attributes":{
						"POSITION":14,
						"NORMAL":15,
						"TEXCOORD_0":16
					},
					"indices":17
				}
			]
		},
		{
			"name":"Icosphere",
			"primitives":[
				{
					"attributes":{
						"POSITION":18,
						"NORMAL":19,
						"TEXCOORD_0":20
					},
					"indices":21
				}
			]
		},
		{
			"name":"Cube.004",
			"primitives":[
				{
					"attributes":{
						"POSITION":22,
						"NORMAL":23,
						"TEXCOORD_0":24
					},
					"indices":7
				}
			]
		}
	],
	"accessors":[
		{
			"bufferView":0,
			"componentType":5126,
			"count":24,
			"max":[
				1,
				1,
				1
			],
			"min":[
				-1,
				-1,
				-1
			],
			"type":"VEC3"
		},
		{
			"bufferView":1,
			"componentType":5126,
			"count":24,
			"type":"VEC3"
		},
		{
			"bufferView":2,
			"componentType":5126,
			"count":24,
			"type":"VEC2"
		},
		{
			"bufferView":3,
			"componentType":5123,
			"count":36,
			"type":"SCALAR"
		},
		{
			"bufferView":4,
			"componentType":5126,
			"count":24,
			"max":[
				1,
				1,
				1
			],
			"min":[
				-1,
				-1,
				-1
			],
			"type":"VEC3"
		},
		{
			"bufferView":5,
			"componentType":5126,
			"count":24,
			"type":"VEC3"
		},
		{
			"bufferView":6,
			"componentType":5126,
			"count":24,
			"type":"VEC2"
		},
		{
			"bufferView":7,
			"componentType":5123,
			"count":36,
			"type":"SCALAR"
		},
		{
			"bufferView":8,
			"componentType":5126,
			"count":24,
			"max":[
				1,
				1,
				1
			],
			"min":[
				-1,
				-1,
				-1
			],
			"type":"VEC3"
		},
		{
			"bufferView":9,
			"componentType":5126,
			"count":24,
			"type":"VEC3"
		},
		{
			"bufferView":10,
			"componentType":5126,
			"count":24,
			"type":"VEC2"
		},
		{
			"bufferView":11,
			"componentType":5126,
			"count":24,
			"max":[
				1,
				1,
				1
			],
			"min":[
				-1,
				-1,
				-1
			],
			"type":"VEC3"
		},
		{
			"bufferView":12,
			"componentType":5126,
			"count":24,
			"type":"VEC3"
		},
		{
			"bufferView":13,
			"componentType":5126,
			"count":24,
			"type":"VEC2"
		},
		{
			"bufferView":14,
			"componentType":5126,
			"count":1966,
			"max":[
				1.3671875,
				0.984375,
				0.8515625
			],
			"min":[
				-1.3671875,
				-0.984375,
				-0.8515625
			],
			"type":"VEC3"
		},
		{
			"bufferView":15,
			"componentType":5126,
			"count":1966,
			"type":"VEC3"
		},
		{
			"bufferView":16,
			"componentType":5126,
			"count":1966,
			"type":"VEC2"
		},
		{
			"bufferView":17,
			"componentType":5123,
			"count":2904,
			"type":"SCALAR"
		},
		{
			"bufferView":18,
			"componentType":5126,
			"count":240,
			"max":[
				0.9510578513145447,
				1,
				0.9999999403953552
			],
			"min":[
				-0.9510578513145447,
				-1,
				-0.9999999403953552
			],
			"type":"VEC3"
		},
		{
			"bufferView":19,
			"componentType":5126,
			"count":240,
			"type":"VEC3"
		},
		{
			"bufferView":20,
			"componentType":5126,
			"count":240,
			"type":"VEC2"
		},
		{
			"bufferView":21,
			"componentType":5123,
			"count":240,
			"type":"SCALAR"
		},
		{
			"bufferView":22,
			"componentType":5126,
			"count":24,
			"max":[
				1,
				1,
				1
			],
			"min":[
				-1,
				-1,
				-1
			],
			"type":"VEC3"
		},
		{
			"bufferView":23,
			"componentType":5126,
			"count":24,
			"type":"VEC3"
		},
		{
			"bufferView":24,
			"componentType":5126,
			"count":24,
			"type":"VEC2"
		},
		{
			"bufferView":25,
			"componentType":5126,
			"count":72,
			"max":[
				3
			],
			"min":[
				0.041666666666666664
			],
			"type":"SCALAR"
		},
		{
			"bufferView":26,
			"componentType":5126,
			"count":72,
			"type":"VEC3"
		},
		{
			"bufferView":27,
			"componentType":5126,
			"count":72,
			"type":"VEC4"
		},
		{
			"bufferView":28,
			"componentType":5126,
			"count":67,
			"max":[
				2.7916666666666665
			],
			"min":[
				0.041666666666666664
			],
			"type":"SCALAR"
		},
		{
			"bufferView":29,
			"componentType":5126,
			"count":67,
			"type":"VEC3"
		},
		{
			"bufferView":30,
			"componentType":5126,
			"count":67,
			"type":"VEC4"
		},
		{
			"bufferView":31,
			"componentType":5126,
			"count":59,
			"max":[
				2.4166666666666665
			],
			"min":[
				0
			],
			"type":"SCALAR"
		},
		{
			"bufferView":32,
			"componentType":5126,
			"count":59,
			"type":"VEC3"
		}
	],
	"bufferViews":[
		{
			"buffer":0,
			"byteLength":288,
			"byteOffset":0,
			"target":34962
		},
		{
			"buffer":0,
			"byteLength":288,
			"byteOffset":288,
			"target":34962
		},
		{
			"buffer":0,
			"byteLength":192,
			"byteOffset":576,
			"target":34962
		},
		{
			"buffer":0,
			"byteLength":72,
			"byteOffset":768,
			"target":34963
		},
		{
			"buffer":0,
			"byteLength":288,
			"byteOffset":840,
			"target":34962
		},
		{
			"buffer":0,
			"byteLength":288,
			"byteOffset":1128,
			"target":34962
		},
		{
			"buffer":0,
			"byteLength":192,
			"byteOffset":1416,
			"target":34962
		},
		{
			"buffer":0,
			"byteLength":72,
			"byteOffset":1608,
			"target":34963
		},
		{
			"buffer":0,
			"byteLength":288,
			"byteOffset":1680,
			"target":34962
		},
		{
			"buffer":0,
			"byteLength":288,
			"byteOffset":1968,
			"target":34962
		},
		{
			"buffer":0,
			"byteLength":192,
			"byteOffset":2256,
			"target":34962
		},
		{
			"buffer":0,
			"byteLength":288,
			"byteOffset":2448,
			"target":34962
		},
		{
			"buffer":0,
			"byteLength":288,
			"byteOffset":2736,
			"target":34962
		},
		{
			"buffer":0,
			"byteLength":192,
			"byteOffset":3024,
			"target":34962
		},
		{
			"buffer":0,
			"byteLength":23592,
			"byteOffset":3216,
			"target":34962
		},
		{
			"buffer":0,
			"byteLength":23592,
			"byteOffset":26808,
			"target":34962
		},
		{
			"buffer":0,
			"byteLength":15728,
			"byteOffset":50400,
			"target":34962
		},
		{
			"buffer":0,
			"byteLength":5808,
			"byteOffset":66128,
			"target":34963
		},
		{
			"buffer":0,
			"byteLength":2880,
			"byteOffset":71936,
			"target":34962
		},
		{
			"buffer":0,
			"byteLength":2880,
			"byteOffset":74816,
			"target":34962
		},
		{
			"buffer":0,
			"byteLength":1920,
			"byteOffset":77696,
			"target":34962
		},
		{
			"buffer":0,
			"byteLength":480,
			"byteOffset":79616,
			"target":34963
		},
		{
			"buffer":0,
			"byteLength":288,
			"byteOffset":80096,
			"target":34962
		},
		{
			"buffer":0,
			"byteLength":288,
			"byteOffset":80384,
			"target":34962
		},
		{
			"buffer":0,
			"byteLength":192,
			"byteOffset":80672,
			"target":34962
		},
		{
			"buffer":0,
			"byteLength":288,
			"byteOffset":80864
		},
		{
			"buffer":0,
			"byteLength":864,
			"byteOffset":81152
		},
		{
			"buffer":0,
			"byteLength":1152,
			"byteOffset":82016
		},
		{
			"buffer":0,
			"byteLength":268,
			"byteOffset":83168
		},
		{
			"buffer":0,
			"byteLength":804,
			"byteOffset":83436
		},
		{
			"buffer":0,
			"byteLength":1072,
			"byteOffset":84240
		},
		{
			"buffer":0,
			"byteLength":236,
			"byteOffset":85312
		},
		{
			"buffer":0,
			"byteLength":708,
			"byteOffset":85548
		}
	],
	"buffers":[
		{
			"byteLength":86256,
			"uri":"camera_on_path_and_lookat.bin"
		}
	]
}
