{
	"asset":{
		"generator":"Khronos glTF Blender I/O v5.1.19",
		"version":"2.0"
	},
	"scene":0,
	"scenes":[
		{
			"name":"Scene",
			"nodes":[
				0,
				1,
				2,
				3,
				5,
				6,
				7,
				8
			]
		}
	],
	"nodes":[
		{
			"camera":0,
			"name":"Camera",
			"rotation":[
				-0.06986845284700394,
				0.929905116558075,
				0.2444772720336914,
				0.2657550573348999
			],
			"translation":[
				40.13352584838867,
				46.09165954589844,
				-59.895484924316406
			]
		},
		{
			"name":"B\u00e9zierCircle",
			"scale":[
				23.564315795898438,
				23.564315795898438,
				23.564315795898438
			]
		},
		{
			"mesh":0,
			"name":"Cube.002",
			"scale":[
				0.2778831124305725,
				0.2778831124305725,
				0.2778831124305725
			]
		},
		{
			"mesh":1,
			"name":"Cube.004",
			"rotation":[
				-0.22655457258224487,
				0,
				0,
				0.973998486995697
			],
			"translation":[
				0,
				11.58926773071289,
				23.564315795898438
			]
		},
		{
			"mesh":2,
			"name":"Sphere",
			"translation":[
				6.828056335449219,
				0,
				-3.552598476409912
			]
		},
		{
			"children":[
				4
			],
			"name":"Empty",
			"translation":[
				0,
				2.4141716957092285,
				8.237257957458496
			]
		},
		{
			"mesh":3,
			"name":"Sphere.001",
			"translation":[
				0,
				0,
				23.564315795898438
			]
		},
		{
			"name":"B\u00e9zierCircle.001",
			"scale":[
				-110.51331329345703,
				-110.51331329345703,
				-110.51331329345703
			],
			"translation":[
				0,
				19.3942928314209,
				0
			]
		},
		{
			"camera":1,
			"name":"RCamera",
			"rotation":[
				0,
				0.996229887008667,
				0.08675270527601242,
				0
			],
			"translation":[
				0,
				19.3942928314209,
				-110.51331329345703
			]
		}
	],
	"cameras":[
		{
			"name":"Camera",
			"perspective":{
				"aspectRatio":1.7777777777777777,
				"yfov":0.39959652046304894,
				"zfar":142.3000030517578,
				"znear":0.10000000149011612
			},
			"type":"perspective"
		},
		{
			"name":"Camera.002",
			"perspective":{
				"aspectRatio":1.7777777777777777,
				"yfov":0.39959652046304894,
				"zfar":1000,
				"znear":0.10000000149011612
			},
			"type":"perspective"
		}
	],
	"animations":[
		{
			"channels":[
				{
					"sampler":0,
					"target":{
						"node":3,
						"path":"translation"
					}
				},
				{
					"sampler":1,
					"target":{
						"node":3,
						"path":"rotation"
					}
				},
				{
					"sampler":2,
					"target":{
						"node":3,
						"path":"scale"
					}
				}
			],
			"name":"Cube.004Action",
			"samplers":[
				{
					"input":15,
					"interpolation":"LINEAR",
					"output":16
				},
				{
					"input":15,
					"interpolation":"LINEAR",
					"output":17
				},
				{
					"input":15,
					"interpolation":"LINEAR",
					"output":18
				}
			]
		},
		{
			"channels":[
				{
					"sampler":0,
					"target":{
						"node":4,
						"path":"translation"
					}
				}
			],
			"name":"SphereAction",
			"samplers":[
				{
					"input":15,
					"interpolation":"LINEAR",
					"output":19
				}
			]
		},
		{
			"channels":[
				{
					"sampler":0,
					"target":{
						"node":6,
						"path":"translation"
					}
				}
			],
			"name":"Sphere.001Action",
			"samplers":[
				{
					"input":15,
					"interpolation":"LINEAR",
					"output":20
				}
			]
		},
		{
			"channels":[
				{
					"sampler":0,
					"target":{
						"node":8,
						"path":"translation"
					}
				},
				{
					"sampler":1,
					"target":{
						"node":8,
						"path":"rotation"
					}
				}
			],
			"name":"RCameraAction.001",
			"samplers":[
				{
					"input":15,
					"interpolation":"LINEAR",
					"output":21
				},
				{
					"input":15,
					"interpolation":"LINEAR",
					"output":22
				}
			]
		}
	],
	"meshes":[
		{
			"name":"Cube.002",
			"primitives":[
				{
					"attributes":{
						"POSITION":0,
						"NORMAL":1,
						"TEXCOORD_0":2
					},
					"indices":3
				}
			]
		},
		{
			"name":"Cube.006",
			"primitives":[
				{
					"attributes":{
						"POSITION":4,
						"NORMAL":5,
						"TEXCOORD_0":6
					},
					"indices":3
				}
			]
		},
		{
			"name":"Sphere",
			"primitives":[
				{
					"attributes":{
						"POSITION":7,
						"NORMAL":8,
						"TEXCOORD_0":9
					},
					"indices":10
				}
			]
		},
		{
			"name":"Sphere.001",
			"primitives":[
				{
					"attributes":{
						"POSITION":11,
						"NORMAL":12,
						"TEXCOORD_0":13
					},
					"indices":14
				}
			]
		}
	],
	"accessors":[
		{
			"bufferView":0,
			"componentType":5126,
			"count":24,
			"max":[
				1,
				1,
				1
			],
			"min":[
				-1,
				-1,
				-1
			],
			"type":"VEC3"
		},
		{
			"bufferView":1,
			"componentType":5126,
			"count":24,
			"type":"VEC3"
		},
		{
			"bufferView":2,
			"componentType":5126,
			"count":24,
			"type":"VEC2"
		},
		{
			"bufferView":3,
			"componentType":5123,
			"count":36,
			"type":"SCALAR"
		},
		{
			"bufferView":4,
			"componentType":5126,
			"count":24,
			"max":[
				1,
				1,
				1
			],
			"min":[
				-1,
				-1,
				-6.692028045654297
			],
			"type":"VEC3"
		},
		{
			"bufferView":5,
			"componentType":5126,
			"count":24,
			"type":"VEC3"
		},
		{
			"bufferView":6,
			"componentType":5126,
			"count":24,
			"type":"VEC2"
		},
		{
			"bufferView":7,
			"componentType":5126,
			"count":1984,
			"max":[
				0.9999997019767761,
				1,
				0.9999993443489075
			],
			"min":[
				-0.9999990463256836,
				-1,
				-1
			],
			"type":"VEC3"
		},
		{
			"bufferView":8,
			"componentType":5126,
			"count":1984,
			"type":"VEC3"
		},
		{
			"bufferView":9,
			"componentType":5126,
			"count":1984,
			"type":"VEC2"
		},
		{
			"bufferView":10,
			"componentType":5123,
			"count":2880,
			"type":"SCALAR"
		},
		{
			"bufferView":11,
			"componentType":5126,
			"count":1984,
			"max":[
				0.9999997019767761,
				1,
				0.9999993443489075
			],
			"min":[
				-0.9999990463256836,
				-1,
				-1
			],
			"type":"VEC3"
		},
		{
			"bufferView":12,
			"componentType":5126,
			"count":1984,
			"type":"VEC3"
		},
		{
			"bufferView":13,
			"componentType":5126,
			"count":1984,
			"type":"VEC2"
		},
		{
			"bufferView":14,
			"componentType":5123,
			"count":2880,
			"type":"SCALAR"
		},
		{
			"bufferView":15,
			"componentType":5126,
			"count":109,
			"max":[
				4.5
			],
			"min":[
				0
			],
			"type":"SCALAR"
		},
		{
			"bufferView":16,
			"componentType":5126,
			"count":109,
			"type":"VEC3"
		},
		{
			"bufferView":17,
			"componentType":5126,
			"count":109,
			"type":"VEC4"
		},
		{
			"bufferView":18,
			"componentType":5126,
			"count":109,
			"type":"VEC3"
		},
		{
			"bufferView":19,
			"componentType":5126,
			"count":109,
			"type":"VEC3"
		},
		{
			"bufferView":20,
			"componentType":5126,
			"count":109,
			"type":"VEC3"
		},
		{
			"bufferView":21,
			"componentType":5126,
			"count":109,
			"type":"VEC3"
		},
		{
			"bufferView":22,
			"componentType":5126,
			"count":109,
			"type":"VEC4"
		}
	],
	"bufferViews":[
		{
			"buffer":0,
			"byteLength":288,
			"byteOffset":0,
			"target":34962
		},
		{
			"buffer":0,
			"byteLength":288,
			"byteOffset":288,
			"target":34962
		},
		{
			"buffer":0,
			"byteLength":192,
			"byteOffset":576,
			"target":34962
		},
		{
			"buffer":0,
			"byteLength":72,
			"byteOffset":768,
			"target":34963
		},
		{
			"buffer":0,
			"byteLength":288,
			"byteOffset":840,
			"target":34962
		},
		{
			"buffer":0,
			"byteLength":288,
			"byteOffset":1128,
			"target":34962
		},
		{
			"buffer":0,
			"byteLength":192,
			"byteOffset":1416,
			"target":34962
		},
		{
			"buffer":0,
			"byteLength":23808,
			"byteOffset":1608,
			"target":34962
		},
		{
			"buffer":0,
			"byteLength":23808,
			"byteOffset":25416,
			"target":34962
		},
		{
			"buffer":0,
			"byteLength":15872,
			"byteOffset":49224,
			"target":34962
		},
		{
			"buffer":0,
			"byteLength":5760,
			"byteOffset":65096,
			"target":34963
		},
		{
			"buffer":0,
			"byteLength":23808,
			"byteOffset":70856,
			"target":34962
		},
		{
			"buffer":0,
			"byteLength":23808,
			"byteOffset":94664,
			"target":34962
		},
		{
			"buffer":0,
			"byteLength":15872,
			"byteOffset":118472,
			"target":34962
		},
		{
			"buffer":0,
			"byteLength":5760,
			"byteOffset":134344,
			"target":34963
		},
		{
			"buffer":0,
			"byteLength":436,
			"byteOffset":140104
		},
		{
			"buffer":0,
			"byteLength":1308,
			"byteOffset":140540
		},
		{
			"buffer":0,
			"byteLength":1744,
			"byteOffset":141848
		},
		{
			"buffer":0,
			"byteLength":1308,
			"byteOffset":143592
		},
		{
			"buffer":0,
			"byteLength":1308,
			"byteOffset":144900
		},
		{
			"buffer":0,
			"byteLength":1308,
			"byteOffset":146208
		},
		{
			"buffer":0,
			"byteLength":1308,
			"byteOffset":147516
		},
		{
			"buffer":0,
			"byteLength":1744,
			"byteOffset":148824
		}
	],
	"buffers":[
		{
			"byteLength":150568,
			"uri":"scene2.bin"
		}
	]
}
