{
	"asset":{
		"generator":"Khronos glTF Blender I/O v5.1.19",
		"version":"2.0"
	},
	"scene":0,
	"scenes":[
		{
			"name":"Scene",
			"nodes":[
				0,
				3,
				4
			]
		}
	],
	"nodes":[
		{
			"camera":0,
			"name":"Camera",
			"rotation":[
				0.5741785168647766,
				0.15174058079719543,
				0.31424441933631897,
				0.7406377792358398
			],
			"translation":[
				6.641180515289307,
				-15.158391952514648,
				6.772472858428955
			]
		},
		{
			"mesh":0,
			"name":"Cube",
			"rotation":[
				-0.5099232792854309,
				0.3191143274307251,
				0.21121713519096375,
				0.7704100608825684
			],
			"translation":[
				0,
				-14.077165603637695,
				4.299368858337402
			]
		},
		{
			"mesh":1,
			"name":"Sphere",
			"translation":[
				-4.685349941253662,
				-4.007828712463379,
				0
			]
		},
		{
			"children":[
				1,
				2
			],
			"name":"Empty",
			"translation":[
				0,
				7.856509685516357,
				0
			]
		},
		{
			"camera":1,
			"name":"Camera.001",
			"rotation":[
				0.2322441041469574,
				0.6832205653190613,
				0.6691915392875671,
				0.17735591530799866
			],
			"translation":[
				16.233959197998047,
				27.524620056152344,
				1.52720046043396
			]
		}
	],
	"cameras":[
		{
			"name":"Camera",
			"perspective":{
				"aspectRatio":1.7777777777777777,
				"yfov":0.39959652046304894,
				"zfar":100,
				"znear":0.10000000149011612
			},
			"type":"perspective"
		},
		{
			"name":"Camera.001",
			"perspective":{
				"aspectRatio":1.7777777777777777,
				"yfov":0.39959652046304894,
				"zfar":1000,
				"znear":0.10000000149011612
			},
			"type":"perspective"
		}
	],
	"materials":[
		{
			"doubleSided":true,
			"name":"Material",
			"pbrMetallicRoughness":{
				"baseColorFactor":[
					0.800000011920929,
					0.800000011920929,
					0.800000011920929,
					1
				],
				"metallicFactor":0,
				"roughnessFactor":0.5
			}
		}
	],
	"meshes":[
		{
			"name":"Cube",
			"primitives":[
				{
					"attributes":{
						"POSITION":0,
						"NORMAL":1,
						"TEXCOORD_0":2
					},
					"indices":3,
					"material":0
				}
			]
		},
		{
			"name":"Sphere",
			"primitives":[
				{
					"attributes":{
						"POSITION":4,
						"NORMAL":5,
						"TEXCOORD_0":6
					},
					"indices":7
				}
			]
		}
	],
	"accessors":[
		{
			"bufferView":0,
			"componentType":5126,
			"count":24,
			"max":[
				1,
				1,
				1
			],
			"min":[
				-1,
				-1,
				-1
			],
			"type":"VEC3"
		},
		{
			"bufferView":1,
			"componentType":5126,
			"count":24,
			"type":"VEC3"
		},
		{
			"bufferView":2,
			"componentType":5126,
			"count":24,
			"type":"VEC2"
		},
		{
			"bufferView":3,
			"componentType":5123,
			"count":36,
			"type":"SCALAR"
		},
		{
			"bufferView":4,
			"componentType":5126,
			"count":1984,
			"max":[
				0.9999997019767761,
				1,
				1
			],
			"min":[
				-0.9999990463256836,
				-0.9999993443489075,
				-1
			],
			"type":"VEC3"
		},
		{
			"bufferView":5,
			"componentType":5126,
			"count":1984,
			"type":"VEC3"
		},
		{
			"bufferView":6,
			"componentType":5126,
			"count":1984,
			"type":"VEC2"
		},
		{
			"bufferView":7,
			"componentType":5123,
			"count":2880,
			"type":"SCALAR"
		}
	],
	"bufferViews":[
		{
			"buffer":0,
			"byteLength":288,
			"byteOffset":0,
			"target":34962
		},
		{
			"buffer":0,
			"byteLength":288,
			"byteOffset":288,
			"target":34962
		},
		{
			"buffer":0,
			"byteLength":192,
			"byteOffset":576,
			"target":34962
		},
		{
			"buffer":0,
			"byteLength":72,
			"byteOffset":768,
			"target":34963
		},
		{
			"buffer":0,
			"byteLength":23808,
			"byteOffset":840,
			"target":34962
		},
		{
			"buffer":0,
			"byteLength":23808,
			"byteOffset":24648,
			"target":34962
		},
		{
			"buffer":0,
			"byteLength":15872,
			"byteOffset":48456,
			"target":34962
		},
		{
			"buffer":0,
			"byteLength":5760,
			"byteOffset":64328,
			"target":34963
		}
	],
	"buffers":[
		{
			"byteLength":70088,
			"uri":"scaled_cube.bin"
		}
	]
}
