{
	"asset":{
		"generator":"Khronos glTF Blender I/O v5.1.19",
		"version":"2.0"
	},
	"scene":0,
	"scenes":[
		{
			"name":"Scene",
			"nodes":[
				0,
				1,
				2,
				3,
				4,
				5,
				6,
				7,
				8,
				11,
				12,
				13,
				14,
				15
			]
		}
	],
	"nodes":[
		{
			"mesh":0,
			"name":"Cube",
			"translation":[
				1.2883392572402954,
				0,
				0.012430821545422077
			]
		},
		{
			"camera":0,
			"name":"cam.01",
			"rotation":[
				-0.056167084723711014,
				0.7834491729736328,
				0.07157968729734421,
				0.6147593855857849
			],
			"translation":[
				27.54790496826172,
				5.024470806121826,
				-7.071160793304443
			]
		},
		{
			"mesh":1,
			"name":"Suzanne",
			"rotation":[
				0.08502905815839767,
				0.5367652773857117,
				0.15623551607131958,
				0.8247687816619873
			],
			"translation":[
				-2.9661049842834473,
				0,
				-3.104975700378418
			]
		},
		{
			"mesh":2,
			"name":"Suzanne.001",
			"rotation":[
				0,
				0.7071068286895752,
				0,
				0.7071068286895752
			],
			"translation":[
				-3.469437599182129,
				4.2027668952941895,
				-31.925765991210938
			]
		},
		{
			"mesh":3,
			"name":"Suzanne.002",
			"rotation":[
				-0.170643612742424,
				0.7025933265686035,
				-0.17973995208740234,
				0.6670359373092651
			],
			"translation":[
				-0.6778383255004883,
				3.0527162551879883,
				2.1541905403137207
			]
		},
		{
			"mesh":4,
			"name":"Icosphere",
			"translation":[
				2.139159917831421,
				0,
				4.158492565155029
			]
		},
		{
			"camera":1,
			"name":"cam.02",
			"rotation":[
				-0.031424034386873245,
				0.955525815486908,
				0.11055723577737808,
				0.2715880274772644
			],
			"translation":[
				16.133914947509766,
				7.384440898895264,
				-26.975278854370117
			]
		},
		{
			"camera":2,
			"name":"cam.03",
			"rotation":[
				-0.49243423342704773,
				0.5075599551200867,
				0.4981965124607086,
				0.5016887784004211
			],
			"translation":[
				0.09831541776657104,
				32.45485305786133,
				-0.07401420921087265
			]
		},
		{
			"mesh":5,
			"name":"Plane",
			"scale":[
				15.296564102172852,
				15.296564102172852,
				15.296564102172852
			],
			"translation":[
				0,
				-2.4560351371765137,
				-0.36581844091415405
			]
		},
		{
			"camera":3,
			"name":"cam.sun",
			"rotation":[
				-0.08273696899414062,
				-0.014763782732188702,
				-0.001225848332978785,
				0.9964613318443298
			],
			"translation":[
				0,
				7.27163553237915,
				43.48023986816406
			]
		},
		{
			"name":"sun.movement",
			"rotation":[
				0,
				0,
				-0.7071068286895752,
				0.7071068286895752
			],
			"scale":[
				43.48023986816406,
				43.48024368286133,
				43.48023986816406
			],
			"translation":[
				0,
				7.27163553237915,
				0
			]
		},
		{
			"children":[
				9,
				10
			],
			"name":"sun light"
		},
		{
			"mesh":6,
			"name":"Cube.001",
			"translation":[
				-4.969613075256348,
				-1.442753553390503,
				2.131844997406006
			]
		},
		{
			"mesh":7,
			"name":"Cube.002",
			"scale":[
				1,
				3.5497210025787354,
				1
			],
			"translation":[
				-4.969613075256348,
				1.0212128162384033,
				-0.02745819091796875
			]
		},
		{
			"mesh":8,
			"name":"Cube.003",
			"scale":[
				0.445362389087677,
				0.291056364774704,
				0.445362389087677
			],
			"translation":[
				-4.969613075256348,
				-0.10346972942352295,
				2.131844997406006
			]
		},
		{
			"mesh":9,
			"name":"Cube.004",
			"scale":[
				0.5213660597801208,
				0.15823085606098175,
				0.5213660597801208
			],
			"translation":[
				-4.969613075256348,
				0.4194592237472534,
				2.131844997406006
			]
		}
	],
	"cameras":[
		{
			"name":"Camera",
			"perspective":{
				"aspectRatio":1.7777777777777777,
				"yfov":0.39959652046304894,
				"zfar":100,
				"znear":0.10000000149011612
			},
			"type":"perspective"
		},
		{
			"name":"Camera.001",
			"perspective":{
				"aspectRatio":1.7777777777777777,
				"yfov":0.39959652046304894,
				"zfar":1000,
				"znear":0.10000000149011612
			},
			"type":"perspective"
		},
		{
			"name":"Camera.002",
			"perspective":{
				"aspectRatio":1.7777777777777777,
				"yfov":0.39959652046304894,
				"zfar":1000,
				"znear":0.10000000149011612
			},
			"type":"perspective"
		},
		{
			"name":"cam.sun",
			"orthographic":{
				"xmag":24.399999618530273,
				"ymag":13.724999785423279,
				"zfar":1000,
				"znear":0.10000000149011612
			},
			"type":"orthographic"
		}
	],
	"animations":[
		{
			"channels":[
				{
					"sampler":0,
					"target":{
						"node":0,
						"path":"rotation"
					}
				}
			],
			"name":"CubeAction",
			"samplers":[
				{
					"input":35,
					"interpolation":"LINEAR",
					"output":36
				}
			]
		},
		{
			"channels":[
				{
					"sampler":0,
					"target":{
						"node":2,
						"path":"rotation"
					}
				}
			],
			"name":"SuzanneAction",
			"samplers":[
				{
					"input":35,
					"interpolation":"LINEAR",
					"output":37
				}
			]
		},
		{
			"channels":[
				{
					"sampler":0,
					"target":{
						"node":3,
						"path":"translation"
					}
				}
			],
			"name":"Suzanne.001Action",
			"samplers":[
				{
					"input":38,
					"interpolation":"LINEAR",
					"output":39
				}
			]
		},
		{
			"channels":[
				{
					"sampler":0,
					"target":{
						"node":5,
						"path":"rotation"
					}
				}
			],
			"name":"IcosphereAction",
			"samplers":[
				{
					"input":38,
					"interpolation":"LINEAR",
					"output":40
				}
			]
		},
		{
			"channels":[
				{
					"sampler":0,
					"target":{
						"node":9,
						"path":"translation"
					}
				},
				{
					"sampler":1,
					"target":{
						"node":9,
						"path":"rotation"
					}
				}
			],
			"name":"cam.sunAction.001",
			"samplers":[
				{
					"input":35,
					"interpolation":"LINEAR",
					"output":41
				},
				{
					"input":35,
					"interpolation":"LINEAR",
					"output":42
				}
			]
		}
	],
	"materials":[
		{
			"doubleSided":true,
			"name":"Material",
			"pbrMetallicRoughness":{
				"baseColorFactor":[
					0.800000011920929,
					0.800000011920929,
					0.800000011920929,
					1
				],
				"metallicFactor":0,
				"roughnessFactor":0.5
			}
		},
		{
			"doubleSided":true,
			"name":"Material.001",
			"pbrMetallicRoughness":{
				"baseColorFactor":[
					0.8000074625015259,
					0,
					0.00225269328802824,
					1
				],
				"metallicFactor":0,
				"roughnessFactor":0.5
			}
		}
	],
	"meshes":[
		{
			"name":"Cube",
			"primitives":[
				{
					"attributes":{
						"POSITION":0,
						"NORMAL":1,
						"TEXCOORD_0":2
					},
					"indices":3,
					"material":0
				}
			]
		},
		{
			"name":"Suzanne.001",
			"primitives":[
				{
					"attributes":{
						"POSITION":4,
						"NORMAL":5,
						"TEXCOORD_0":6
					},
					"indices":7
				}
			]
		},
		{
			"name":"Suzanne.002",
			"primitives":[
				{
					"attributes":{
						"POSITION":8,
						"NORMAL":9,
						"TEXCOORD_0":10
					},
					"indices":7
				}
			]
		},
		{
			"name":"Suzanne.003",
			"primitives":[
				{
					"attributes":{
						"POSITION":11,
						"NORMAL":12,
						"TEXCOORD_0":13
					},
					"indices":7
				}
			]
		},
		{
			"name":"Icosphere",
			"primitives":[
				{
					"attributes":{
						"POSITION":14,
						"NORMAL":15,
						"TEXCOORD_0":16
					},
					"indices":17
				}
			]
		},
		{
			"name":"Plane",
			"primitives":[
				{
					"attributes":{
						"POSITION":18,
						"NORMAL":19,
						"TEXCOORD_0":20
					},
					"indices":21
				}
			]
		},
		{
			"name":"Cube.001",
			"primitives":[
				{
					"attributes":{
						"POSITION":22,
						"NORMAL":23,
						"TEXCOORD_0":24
					},
					"indices":25
				}
			]
		},
		{
			"name":"Cube.002",
			"primitives":[
				{
					"attributes":{
						"POSITION":26,
						"NORMAL":27,
						"TEXCOORD_0":28
					},
					"indices":25,
					"material":1
				}
			]
		},
		{
			"name":"Cube.003",
			"primitives":[
				{
					"attributes":{
						"POSITION":29,
						"NORMAL":30,
						"TEXCOORD_0":31
					},
					"indices":25
				}
			]
		},
		{
			"name":"Cube.004",
			"primitives":[
				{
					"attributes":{
						"POSITION":32,
						"NORMAL":33,
						"TEXCOORD_0":34
					},
					"indices":25
				}
			]
		}
	],
	"accessors":[
		{
			"bufferView":0,
			"componentType":5126,
			"count":24,
			"max":[
				1,
				1,
				1
			],
			"min":[
				-1,
				-1,
				-1
			],
			"type":"VEC3"
		},
		{
			"bufferView":1,
			"componentType":5126,
			"count":24,
			"type":"VEC3"
		},
		{
			"bufferView":2,
			"componentType":5126,
			"count":24,
			"type":"VEC2"
		},
		{
			"bufferView":3,
			"componentType":5123,
			"count":36,
			"type":"SCALAR"
		},
		{
			"bufferView":4,
			"componentType":5126,
			"count":1966,
			"max":[
				1.3671875,
				0.984375,
				0.8515625
			],
			"min":[
				-1.3671875,
				-0.984375,
				-0.8515625
			],
			"type":"VEC3"
		},
		{
			"bufferView":5,
			"componentType":5126,
			"count":1966,
			"type":"VEC3"
		},
		{
			"bufferView":6,
			"componentType":5126,
			"count":1966,
			"type":"VEC2"
		},
		{
			"bufferView":7,
			"componentType":5123,
			"count":2904,
			"type":"SCALAR"
		},
		{
			"bufferView":8,
			"componentType":5126,
			"count":1966,
			"max":[
				1.3671875,
				0.984375,
				0.8515625
			],
			"min":[
				-1.3671875,
				-0.984375,
				-0.8515625
			],
			"type":"VEC3"
		},
		{
			"bufferView":9,
			"componentType":5126,
			"count":1966,
			"type":"VEC3"
		},
		{
			"bufferView":10,
			"componentType":5126,
			"count":1966,
			"type":"VEC2"
		},
		{
			"bufferView":11,
			"componentType":5126,
			"count":1966,
			"max":[
				1.3671875,
				0.984375,
				0.8515625
			],
			"min":[
				-1.3671875,
				-0.984375,
				-0.8515625
			],
			"type":"VEC3"
		},
		{
			"bufferView":12,
			"componentType":5126,
			"count":1966,
			"type":"VEC3"
		},
		{
			"bufferView":13,
			"componentType":5126,
			"count":1966,
			"type":"VEC2"
		},
		{
			"bufferView":14,
			"componentType":5126,
			"count":240,
			"max":[
				0.9510578513145447,
				1,
				0.9999999403953552
			],
			"min":[
				-0.9510578513145447,
				-1,
				-0.9999999403953552
			],
			"type":"VEC3"
		},
		{
			"bufferView":15,
			"componentType":5126,
			"count":240,
			"type":"VEC3"
		},
		{
			"bufferView":16,
			"componentType":5126,
			"count":240,
			"type":"VEC2"
		},
		{
			"bufferView":17,
			"componentType":5123,
			"count":240,
			"type":"SCALAR"
		},
		{
			"bufferView":18,
			"componentType":5126,
			"count":4,
			"max":[
				1,
				0,
				1
			],
			"min":[
				-1,
				0,
				-1
			],
			"type":"VEC3"
		},
		{
			"bufferView":19,
			"componentType":5126,
			"count":4,
			"type":"VEC3"
		},
		{
			"bufferView":20,
			"componentType":5126,
			"count":4,
			"type":"VEC2"
		},
		{
			"bufferView":21,
			"componentType":5123,
			"count":6,
			"type":"SCALAR"
		},
		{
			"bufferView":22,
			"componentType":5126,
			"count":24,
			"max":[
				1,
				1,
				1
			],
			"min":[
				-1,
				-1,
				-1
			],
			"type":"VEC3"
		},
		{
			"bufferView":23,
			"componentType":5126,
			"count":24,
			"type":"VEC3"
		},
		{
			"bufferView":24,
			"componentType":5126,
			"count":24,
			"type":"VEC2"
		},
		{
			"bufferView":25,
			"componentType":5123,
			"count":36,
			"type":"SCALAR"
		},
		{
			"bufferView":26,
			"componentType":5126,
			"count":24,
			"max":[
				1,
				1,
				1
			],
			"min":[
				-1,
				-1,
				-1
			],
			"type":"VEC3"
		},
		{
			"bufferView":27,
			"componentType":5126,
			"count":24,
			"type":"VEC3"
		},
		{
			"bufferView":28,
			"componentType":5126,
			"count":24,
			"type":"VEC2"
		},
		{
			"bufferView":29,
			"componentType":5126,
			"count":24,
			"max":[
				1,
				1,
				1
			],
			"min":[
				-1,
				-1,
				-1
			],
			"type":"VEC3"
		},
		{
			"bufferView":30,
			"componentType":5126,
			"count":24,
			"type":"VEC3"
		},
		{
			"bufferView":31,
			"componentType":5126,
			"count":24,
			"type":"VEC2"
		},
		{
			"bufferView":32,
			"componentType":5126,
			"count":24,
			"max":[
				1,
				1,
				1
			],
			"min":[
				-1,
				-1,
				-1
			],
			"type":"VEC3"
		},
		{
			"bufferView":33,
			"componentType":5126,
			"count":24,
			"type":"VEC3"
		},
		{
			"bufferView":34,
			"componentType":5126,
			"count":24,
			"type":"VEC2"
		},
		{
			"bufferView":35,
			"componentType":5126,
			"count":120,
			"max":[
				5
			],
			"min":[
				0.041666666666666664
			],
			"type":"SCALAR"
		},
		{
			"bufferView":36,
			"componentType":5126,
			"count":120,
			"type":"VEC4"
		},
		{
			"bufferView":37,
			"componentType":5126,
			"count":120,
			"type":"VEC4"
		},
		{
			"bufferView":38,
			"componentType":5126,
			"count":121,
			"max":[
				5
			],
			"min":[
				0
			],
			"type":"SCALAR"
		},
		{
			"bufferView":39,
			"componentType":5126,
			"count":121,
			"type":"VEC3"
		},
		{
			"bufferView":40,
			"componentType":5126,
			"count":121,
			"type":"VEC4"
		},
		{
			"bufferView":41,
			"componentType":5126,
			"count":120,
			"type":"VEC3"
		},
		{
			"bufferView":42,
			"componentType":5126,
			"count":120,
			"type":"VEC4"
		}
	],
	"bufferViews":[
		{
			"buffer":0,
			"byteLength":288,
			"byteOffset":0,
			"target":34962
		},
		{
			"buffer":0,
			"byteLength":288,
			"byteOffset":288,
			"target":34962
		},
		{
			"buffer":0,
			"byteLength":192,
			"byteOffset":576,
			"target":34962
		},
		{
			"buffer":0,
			"byteLength":72,
			"byteOffset":768,
			"target":34963
		},
		{
			"buffer":0,
			"byteLength":23592,
			"byteOffset":840,
			"target":34962
		},
		{
			"buffer":0,
			"byteLength":23592,
			"byteOffset":24432,
			"target":34962
		},
		{
			"buffer":0,
			"byteLength":15728,
			"byteOffset":48024,
			"target":34962
		},
		{
			"buffer":0,
			"byteLength":5808,
			"byteOffset":63752,
			"target":34963
		},
		{
			"buffer":0,
			"byteLength":23592,
			"byteOffset":69560,
			"target":34962
		},
		{
			"buffer":0,
			"byteLength":23592,
			"byteOffset":93152,
			"target":34962
		},
		{
			"buffer":0,
			"byteLength":15728,
			"byteOffset":116744,
			"target":34962
		},
		{
			"buffer":0,
			"byteLength":23592,
			"byteOffset":132472,
			"target":34962
		},
		{
			"buffer":0,
			"byteLength":23592,
			"byteOffset":156064,
			"target":34962
		},
		{
			"buffer":0,
			"byteLength":15728,
			"byteOffset":179656,
			"target":34962
		},
		{
			"buffer":0,
			"byteLength":2880,
			"byteOffset":195384,
			"target":34962
		},
		{
			"buffer":0,
			"byteLength":2880,
			"byteOffset":198264,
			"target":34962
		},
		{
			"buffer":0,
			"byteLength":1920,
			"byteOffset":201144,
			"target":34962
		},
		{
			"buffer":0,
			"byteLength":480,
			"byteOffset":203064,
			"target":34963
		},
		{
			"buffer":0,
			"byteLength":48,
			"byteOffset":203544,
			"target":34962
		},
		{
			"buffer":0,
			"byteLength":48,
			"byteOffset":203592,
			"target":34962
		},
		{
			"buffer":0,
			"byteLength":32,
			"byteOffset":203640,
			"target":34962
		},
		{
			"buffer":0,
			"byteLength":12,
			"byteOffset":203672,
			"target":34963
		},
		{
			"buffer":0,
			"byteLength":288,
			"byteOffset":203684,
			"target":34962
		},
		{
			"buffer":0,
			"byteLength":288,
			"byteOffset":203972,
			"target":34962
		},
		{
			"buffer":0,
			"byteLength":192,
			"byteOffset":204260,
			"target":34962
		},
		{
			"buffer":0,
			"byteLength":72,
			"byteOffset":204452,
			"target":34963
		},
		{
			"buffer":0,
			"byteLength":288,
			"byteOffset":204524,
			"target":34962
		},
		{
			"buffer":0,
			"byteLength":288,
			"byteOffset":204812,
			"target":34962
		},
		{
			"buffer":0,
			"byteLength":192,
			"byteOffset":205100,
			"target":34962
		},
		{
			"buffer":0,
			"byteLength":288,
			"byteOffset":205292,
			"target":34962
		},
		{
			"buffer":0,
			"byteLength":288,
			"byteOffset":205580,
			"target":34962
		},
		{
			"buffer":0,
			"byteLength":192,
			"byteOffset":205868,
			"target":34962
		},
		{
			"buffer":0,
			"byteLength":288,
			"byteOffset":206060,
			"target":34962
		},
		{
			"buffer":0,
			"byteLength":288,
			"byteOffset":206348,
			"target":34962
		},
		{
			"buffer":0,
			"byteLength":192,
			"byteOffset":206636,
			"target":34962
		},
		{
			"buffer":0,
			"byteLength":480,
			"byteOffset":206828
		},
		{
			"buffer":0,
			"byteLength":1920,
			"byteOffset":207308
		},
		{
			"buffer":0,
			"byteLength":1920,
			"byteOffset":209228
		},
		{
			"buffer":0,
			"byteLength":484,
			"byteOffset":211148
		},
		{
			"buffer":0,
			"byteLength":1452,
			"byteOffset":211632
		},
		{
			"buffer":0,
			"byteLength":1936,
			"byteOffset":213084
		},
		{
			"buffer":0,
			"byteLength":1440,
			"byteOffset":215020
		},
		{
			"buffer":0,
			"byteLength":1920,
			"byteOffset":216460
		}
	],
	"buffers":[
		{
			"byteLength":218380,
			"uri":"shadow_mapping_scene.bin"
		}
	]
}
